# xmcd
#
# Track frame offsets:
# 150
# 23711
# 41968
# 66757
# 87421
# 105885
# 121379
# 143583
# 156137
# 175147
# 199436
# 221746
# 237273
# 256092
# 277658
# 293817
# 314524
#
# Disc length: 4349 seconds
#
#
# Revision: 0
# Processed by: cddbd v1.5.1PL2 Copyright (c) Steve Scherf et al.
# Submitted via: Nero 7, 2, 3, 2 
#
DISCID=f110fb11
DTITLE=Various-Blues - Classic Blues Vol.1
DYEAR=2006
DGENRE=Blues
TTITLE0=Down Home Blues
TTITLE1=I Want A Big Fat Woman
TTITLE2=Never Make Your Move To Soon
TTITLE3=I Found A Love
TTITLE4=Members Only
TTITLE5=Lets Straighten It Out
TTITLE6=I Can Do Bad By Myself
TTITLE7=Can I Change My Mind
TTITLE8=The Blues Is Alright
TTITLE9=The Thrill Is Gone
TTITLE10=Taxi
TTITLE11=Tryin To Love Two
TTITLE12=Root Doctor
TTITLE13=I'll Rather Go Blind
TTITLE14=End Of The Rainbow
TTITLE15=Your Hubby Is Cheating On Us
TTITLE16=Turn Back The Hands Of Time
EXTD=
EXTT0=
EXTT1=
EXTT2=
EXTT3=
EXTT4=
EXTT5=
EXTT6=
EXTT7=
EXTT8=
EXTT9=
EXTT10=
EXTT11=
EXTT12=
EXTT13=
EXTT14=
EXTT15=
EXTT16=
PLAYORDER=
